<svg width="48" height="48" fill="none" xmlns="http://www.w3.org/2000/svg"><path d="M14.977 16.918c.826-1.182 2.378-1.737 3.77-1.363 1.42.382 2.4 1.634 2.6 3.063m10.45 9.554c-5.506 3.67-13.993 1.81-16.727-4.484m13.82-3.06c.807-1.168 2.417-1.736 3.772-1.33 1.4.362 2.408 1.619 2.597 3.03M42.6 24c0 10.272-8.328 18.6-18.6 18.6-10.273 0-18.6-8.328-18.6-18.6C5.4 13.727 13.727 5.4 24 5.4c10.273 0 18.6 8.327 18.6 18.6z" stroke="#008941" stroke-width="1.25" stroke-linecap="round" stroke-linejoin="round"/></svg>