<svg width="48" height="48" fill="none" xmlns="http://www.w3.org/2000/svg"><path d="M22.615 36.3V39m0 0h2.77m-2.77 0h-1.129c-.87 0-1.64-.721-1.64-1.6v-1.7C16.384 34.217 14 30.491 14 26.75 14 21.293 18.613 17 24 17c5.392 0 10 4.298 10 9.75a9.79 9.79 0 01-5.795 8.95v1.7c0 .848-.805 1.6-1.64 1.6h-1.18m0-2.7V39m4.461-9.8l-4.154-4.1m0 4.1l4.154-4.1m-7.538 4.1l-4.155-4.1m0 4.1l4.155-4.1M7 14.068h34M14.076 35H10a3 3 0 01-3-3V11a3 3 0 013-3h28a3 3 0 013 3v21a3 3 0 01-3 3h-4.076" stroke="#008941" stroke-width="1.25" stroke-linecap="round" stroke-linejoin="round"/></svg>